<svg width="157" height="149" viewBox="0 0 157 149" fill="none" xmlns="http://www.w3.org/2000/svg">
<rect x="126.345" y="18.8018" width="31" height="132" fill="#3A261C"/>
<path d="M126.345 18.8018C122.102 18.8018 118.032 21.5937 115.031 26.5635C112.031 31.5332 110.345 38.2735 110.345 45.3018C110.345 52.33 112.031 59.0704 115.031 64.0401C118.032 69.0098 122.102 71.8018 126.345 71.8018L126.345 45.3018L126.345 18.8018Z" fill="#3A261C"/>
<ellipse cx="122.255" cy="39.315" rx="15.9044" ry="20.5757" transform="rotate(12.8785 122.255 39.315)" fill="#3A261C"/>
<path d="M119.294 42.8548C119.679 48.3697 118.854 53.922 116.869 59.1744C114.884 64.4267 111.78 69.2696 107.747 73.4086C103.714 77.5477 98.8348 80.8965 93.4065 83.2517C87.9783 85.6069 82.1142 86.9192 76.1704 87.109L75.9794 74.8945C80.1441 74.7615 84.2529 73.842 88.0564 72.1918C91.8598 70.5415 95.2784 68.1951 98.1045 65.2949C100.931 62.3948 103.105 59.0016 104.496 55.3213C105.887 51.6411 106.465 47.7507 106.196 43.8866L119.294 42.8548Z" fill="#3A261C"/>
<rect x="107" y="36" width="9" height="16" fill="#3A261C"/>
<rect x="43.3452" y="74.8018" width="37" height="13" fill="#3A261C"/>
<ellipse cx="43.8452" cy="97.8018" rx="18.5" ry="23" fill="#3A261C"/>
<path d="M28.9362 92.8226C28.158 97.0044 25.8448 100.84 22.4334 103.607C19.022 106.373 14.7484 107.878 10.4194 107.837L10.6071 104.769C14.1665 104.802 17.6804 103.565 20.4854 101.29C23.2904 99.0158 25.1923 95.8616 25.8322 92.4232L28.9362 92.8226Z" fill="#3A261C"/>
<rect x="-0.654846" y="104.802" width="12" height="6" fill="#3A261C"/>
<rect x="51.3452" y="84.8018" width="93" height="66" fill="#3A261C"/>
<rect x="83.3452" y="87.3362" width="53" height="27" rx="11" transform="rotate(-42.1027 83.3452 87.3362)" fill="#3A261C"/>
<rect x="-14.2502" y="115.776" width="81.9326" height="65.8118" transform="rotate(-20.9555 -14.2502 115.776)" fill="#3A261C"/>
</svg>
